# Blender v2.77 (sub 0) OBJ File: 'Body.blend'
# www.blender.org
mtllib Hammer.mtl
v -0.047102 0.166717 0.111061
v -0.045525 0.073442 0.179405
v -0.045277 -0.077189 0.178018
v -0.046939 -0.182724 0.070540
v -0.049537 -0.181341 -0.080069
v -0.051549 -0.073851 -0.185585
v -0.051797 0.076780 -0.184198
v -0.050135 0.182315 -0.076720
v -0.047784 0.331487 0.075275
v -0.049858 0.315712 -0.030469
v -0.047897 0.472302 0.101603
v -0.045670 0.515539 0.103197
v -0.048593 0.527572 -0.004653
v -0.050320 0.474780 -0.091191
v -0.048851 0.541446 -0.074549
v -0.018860 0.565195 0.062776
v -0.020030 0.570008 0.019636
v -0.026724 0.472857 0.157065
v -0.024719 0.511771 0.158501
v -0.052128 0.543367 -0.149750
v -0.050132 0.574860 -0.113264
v -0.041871 0.591484 -0.187119
v -0.051325 0.622926 -0.163187
v -0.050855 0.402615 -0.057749
v 0.047102 0.166717 0.111061
v 0.045525 0.073442 0.179405
v 0.045277 -0.077189 0.178018
v 0.046939 -0.182724 0.070540
v 0.049537 -0.181341 -0.080069
v 0.051549 -0.073851 -0.185585
v 0.051797 0.076780 -0.184198
v 0.050135 0.182315 -0.076720
v 0.047784 0.331487 0.075275
v 0.049858 0.315712 -0.030470
v 0.047897 0.472302 0.101603
v 0.045670 0.515539 0.103197
v 0.048593 0.527572 -0.004653
v 0.050320 0.474780 -0.091191
v 0.048851 0.541446 -0.074549
v 0.018860 0.565195 0.062776
v 0.020030 0.570008 0.019636
v 0.026724 0.472857 0.157065
v 0.024719 0.511771 0.158501
v 0.052128 0.543367 -0.149750
v 0.050132 0.574860 -0.113264
v 0.041871 0.591484 -0.187119
v 0.051325 0.622926 -0.163187
v 0.050855 0.402615 -0.057749
v -0.051325 0.644602 -0.230664
v -0.041871 0.621465 -0.254018
v -0.036707 0.641619 -0.300195
v -0.029082 0.616974 -0.329159
v 0.051325 0.644602 -0.230664
v 0.041871 0.621465 -0.254018
v 0.036707 0.641619 -0.300195
v 0.029082 0.616974 -0.329159
v -0.000000 0.617444 -0.330445
vt 0.3643 0.6253
vt 0.3677 0.5791
vt 0.3807 0.5956
vt 0.3829 0.5645
vt 0.3982 0.5772
vt 0.3833 0.2424
vt 0.3070 0.1796
vt 0.3639 0.1554
vt 0.3870 0.5294
vt 0.4371 0.5193
vt 0.4323 0.5546
vt 0.2413 0.7273
vt 0.2380 0.6571
vt 0.2760 0.7003
vt 0.4940 0.2169
vt 0.4534 0.1800
vt 0.4840 0.1456
vt 0.2956 0.0503
vt 0.2520 0.1072
vt 0.1575 0.0001
vt 0.0922 0.1224
vt 0.0303 0.0764
vt 0.2008 0.6964
vt 0.1966 0.7273
vt 0.5957 0.9484
vt 0.5470 0.9619
vt 0.5706 0.9284
vt 0.5014 0.1016
vt 0.5121 0.1395
vt 0.3461 0.3882
vt 0.4145 0.3635
vt 0.1782 0.7115
vt 0.1875 0.7023
vt 0.4824 0.3451
vt 0.4534 0.3808
vt 0.4578 0.3340
vt 0.4078 0.4928
vt 0.4408 0.4927
vt 0.4531 0.4516
vt 0.2535 0.4127
vt 0.1884 0.4935
vt 0.1771 0.4418
vt 0.0472 0.3058
vt 0.1771 0.3174
vt 0.1250 0.3661
vt 0.0653 0.1952
vt 0.0001 0.1995
vt 0.2027 0.6799
vt 0.1602 0.6751
vt 0.6665 0.9142
vt 0.7135 0.9427
vt 0.6850 0.9470
vt 0.1852 0.5404
vt 0.2338 0.6107
vt 0.1713 0.5948
vt 0.7377 0.9035
vt 0.7749 0.8743
vt 0.7769 0.9001
vt 0.1687 0.6325
vt 0.4815 0.2945
vt 0.5077 0.3129
vt 0.2849 0.5942
vt 0.3071 0.6695
vt 0.2616 0.6244
vt 0.6098 0.6871
vt 0.7769 0.6084
vt 0.7340 0.6720
vt 0.5040 0.9847
vt 0.4738 0.9994
vt 0.4534 0.9837
vt 0.4727 0.3927
vt 0.4672 0.4259
vt 0.8528 0.0001
vt 0.7278 0.2066
vt 0.7558 0.0240
vt 0.5646 0.9823
vt 0.3292 0.6488
vt 0.2536 0.5514
vt 0.5210 0.9999
vt 0.4881 0.4410
vt 0.3315 0.5675
vt 0.3117 0.2581
vt 0.4095 0.5119
vt 0.2157 0.6793
vt 0.4574 0.2085
vt 0.1665 0.0875
vt 0.4761 0.1071
vt 0.1952 0.6964
vt 0.3948 0.4630
vt 0.2576 0.4907
vt 0.1039 0.2659
vt 0.2176 0.6454
vt 0.7355 0.8749
vt 0.6205 0.9252
vt 0.6077 0.8815
vt 0.6281 0.8327
vt 0.7145 0.7822
vt 0.7721 0.5085
vt 0.6439 0.7744
vt 0.5359 0.6199
vt 0.5311 0.5201
vt 0.6981 0.4413
vt 0.5983 0.4461
vt 0.5831 0.2306
vt 0.4966 0.2642
vt 0.5422 0.2639
vt 0.7070 0.0833
vt 0.6070 0.1333
vt 0.6345 0.1987
vt 0.9383 0.0519
vt 0.9622 0.1490
vt 0.9104 0.2345
vt 0.8133 0.2584
vn 0.0000 0.4968 -0.8679
vn 0.0000 0.9938 0.1109
vn 0.0000 0.5910 0.8066
vn 0.0000 0.9977 0.0680
vn 0.0000 0.9521 0.3058
vn 0.8478 0.5240 0.0814
vn 0.0000 -0.0092 1.0000
vn 0.0000 -1.0000 -0.0092
vn 0.0000 0.9991 -0.0429
vn -0.9856 0.1509 -0.0763
vn 0.9338 0.0350 0.3561
vn 0.0000 0.2122 0.9772
vn 0.0411 0.7556 -0.6537
vn 0.9693 -0.2342 -0.0752
vn 0.0000 -0.0369 0.9993
vn 0.0000 -0.9999 0.0100
vn -0.0000 -0.2995 -0.9541
vn 0.0000 0.7135 -0.7006
vn 0.0000 -0.7135 0.7006
vn 0.0000 0.0092 -1.0000
vn 0.0000 -0.9986 0.0525
vn -0.8478 0.5240 0.0814
vn 0.0000 -0.6493 -0.7605
vn -0.9338 0.0350 0.3561
vn 0.0000 -0.9126 -0.4090
vn 0.9856 0.1509 -0.0763
vn 0.0000 -0.7005 -0.7136
vn 0.0000 0.7570 0.6534
vn -0.9999 -0.0054 0.0157
vn 0.0000 0.3276 -0.9448
vn 0.0000 0.6313 0.7755
vn 0.0000 -0.1838 0.9830
vn -0.9804 -0.1153 -0.1600
vn 0.9610 -0.1973 -0.1936
vn 0.9998 -0.0018 0.0172
vn -0.9725 -0.1790 -0.1491
vn 0.0000 0.9809 0.1947
vn 0.0000 -0.4205 -0.9073
vn -0.9556 -0.2689 -0.1205
vn 0.9725 -0.1790 -0.1491
vn -0.9610 -0.1973 -0.1936
vn 0.9804 -0.1153 -0.1600
vn -0.0411 0.7556 -0.6537
vn 0.0000 0.7812 -0.6243
vn 0.9556 -0.2689 -0.1205
vn -0.0189 -0.9978 0.0629
vn 0.0189 -0.9978 0.0629
vn 0.0000 -0.6134 -0.7898
vn 0.0000 0.7204 0.6936
vn -0.9990 0.0125 0.0439
vn -0.9990 0.0111 0.0438
vn -0.9982 0.0502 0.0327
vn -0.9998 0.0201 0.0077
vn -0.9998 0.0130 0.0120
vn -0.9998 -0.0047 0.0206
vn -0.9998 -0.0018 0.0172
vn -0.9998 0.0001 0.0196
vn -0.9998 0.0125 0.0131
vn -0.9998 -0.0051 0.0204
vn -0.9999 -0.0034 0.0159
vn 0.9982 0.0502 0.0327
vn 0.9998 0.0125 0.0131
vn 0.9990 0.0125 0.0439
vn 0.9998 0.0201 0.0077
vn 0.9999 -0.0054 0.0157
vn 0.9998 -0.0047 0.0206
vn 0.9990 0.0111 0.0438
vn 0.9998 0.0130 0.0120
vn 0.9998 -0.0051 0.0204
vn 0.9998 0.0001 0.0196
vn 0.9999 -0.0034 0.0159
vn -0.9693 -0.2342 -0.0752
usemtl Material
s off
f 37/1/1 17/2/1 41/3/1
f 41/3/2 16/4/2 40/5/2
f 25/6/3 2/7/3 26/8/3
f 12/9/4 43/10/4 36/11/4
f 53/12/5 23/13/5 47/14/5
f 37/15/6 40/16/6 36/17/6
f 27/18/7 2/7/7 3/19/7
f 28/20/8 5/21/8 29/22/8
f 51/23/9 53/12/9 55/24/9
f 21/25/10 22/26/10 20/27/10
f 36/17/11 42/28/11 35/29/11
f 9/30/12 25/6/12 33/31/12
f 55/24/13 56/32/13 57/33/13
f 46/34/14 53/35/14 47/36/14
f 43/10/15 18/37/15 42/38/15
f 18/37/16 35/39/16 42/38/16
f 10/40/17 48/41/17 34/42/17
f 31/43/18 8/44/18 32/45/18
f 3/19/19 28/20/19 27/18/19
f 6/46/20 31/43/20 30/47/20
f 50/48/21 57/33/21 54/49/21
f 13/50/22 16/51/22 17/52/22
f 38/53/23 20/54/23 44/55/23
f 12/56/24 18/57/24 19/58/24
f 46/59/25 50/48/25 54/49/25
f 46/34/26 45/60/26 44/61/26
f 29/22/27 6/46/27 30/47/27
f 15/62/28 45/63/28 21/64/28
f 8/65/29 2/66/29 1/67/29
f 32/45/30 10/40/30 34/42/30
f 16/4/31 36/11/31 40/5/31
f 35/39/32 9/30/32 33/31/32
f 50/68/33 51/69/33 52/70/33
f 54/71/34 55/72/34 53/35/34
f 27/73/35 32/74/35 26/75/35
f 21/25/36 23/76/36 22/26/36
f 15/62/37 37/1/37 39/77/37
f 48/41/38 14/78/38 38/53/38
f 22/26/39 49/79/39 50/68/39
f 46/34/40 47/36/40 45/60/40
f 50/68/41 49/79/41 51/69/41
f 54/71/42 56/80/42 55/72/42
f 37/1/1 13/81/1 17/2/1
f 41/3/2 17/2/2 16/4/2
f 25/6/3 1/82/3 2/7/3
f 12/9/4 19/83/4 43/10/4
f 53/12/5 49/84/5 23/13/5
f 37/15/6 41/85/6 40/16/6
f 27/18/7 26/8/7 2/7/7
f 28/20/8 4/86/8 5/21/8
f 51/23/9 49/84/9 53/12/9
f 36/17/11 43/87/11 42/28/11
f 9/30/12 1/82/12 25/6/12
f 57/33/43 52/88/43 51/23/43
f 51/23/44 55/24/44 57/33/44
f 46/34/45 54/71/45 53/35/45
f 43/10/15 19/83/15 18/37/15
f 18/37/16 11/89/16 35/39/16
f 10/40/17 24/90/17 48/41/17
f 31/43/18 7/91/18 8/44/18
f 3/19/19 4/86/19 28/20/19
f 6/46/20 7/91/20 31/43/20
f 56/32/46 54/49/46 57/33/46
f 50/48/47 52/88/47 57/33/47
f 13/50/22 12/56/22 16/51/22
f 46/59/48 44/55/48 20/54/48
f 38/53/23 14/78/23 20/54/23
f 20/54/48 22/92/48 46/59/48
f 12/56/24 11/93/24 18/57/24
f 46/59/25 22/92/25 50/48/25
f 29/22/27 5/21/27 6/46/27
f 23/13/49 21/64/49 45/63/49
f 15/62/28 39/77/28 45/63/28
f 45/63/49 47/14/49 23/13/49
f 15/94/50 21/25/50 20/27/50
f 15/94/51 20/27/51 14/95/51
f 11/93/52 12/56/52 13/50/52
f 13/50/53 15/94/53 14/95/53
f 13/50/54 14/95/54 24/96/54
f 9/97/55 11/93/55 24/96/55
f 3/98/56 2/66/56 8/65/56
f 1/67/57 9/97/57 10/99/57
f 13/50/58 24/96/58 11/93/58
f 8/65/56 7/100/56 6/101/56
f 9/97/59 24/96/59 10/99/59
f 8/65/56 6/101/56 4/102/56
f 1/67/60 10/99/60 8/65/60
f 4/102/56 3/98/56 8/65/56
f 6/101/56 5/103/56 4/102/56
f 32/45/30 8/44/30 10/40/30
f 16/4/31 12/9/31 36/11/31
f 35/39/32 11/89/32 9/30/32
f 37/15/61 36/17/61 35/29/61
f 37/15/62 35/29/62 48/104/62
f 44/61/63 45/60/63 39/105/63
f 39/105/64 37/15/64 38/106/64
f 25/107/65 26/75/65 32/74/65
f 35/29/66 33/108/66 48/104/66
f 38/106/67 44/61/67 39/105/67
f 48/104/68 38/106/68 37/15/68
f 33/108/69 34/109/69 48/104/69
f 27/73/35 28/110/35 29/111/35
f 29/111/35 30/112/35 32/74/35
f 30/112/35 31/113/35 32/74/35
f 33/108/70 25/107/70 34/109/70
f 29/111/35 32/74/35 27/73/35
f 34/109/71 25/107/71 32/74/71
f 15/62/37 13/81/37 37/1/37
f 48/41/38 24/90/38 14/78/38
f 22/26/72 23/76/72 49/79/72
